<?xml version="1.0" encoding="UTF-8"?> <svg xmlns="http://www.w3.org/2000/svg" xmlns:xlink="http://www.w3.org/1999/xlink" width="75" zoomAndPan="magnify" viewBox="0 0 56.25 56.249997" height="75" preserveAspectRatio="xMidYMid meet" version="1.0"><defs><clipPath id="b262cfbbe3"><path d="M 2.777344 1.480469 L 53.105469 1.480469 L 53.105469 51.808594 L 2.777344 51.808594 Z M 2.777344 1.480469 " clip-rule="nonzero"></path></clipPath></defs><g clip-path="url(#b262cfbbe3)"><path fill="#000000" d="M 45.734375 8.851562 C 41.179688 4.296875 34.890625 1.480469 27.945312 1.480469 C 27.945312 1.480469 27.941406 1.480469 27.941406 1.480469 C 27.9375 1.480469 27.9375 1.480469 27.933594 1.480469 C 20.988281 1.480469 14.699219 4.296875 10.144531 8.851562 C 8.753906 10.242188 7.527344 11.792969 6.492188 13.476562 C 6.472656 13.503906 6.457031 13.53125 6.441406 13.5625 C 4.117188 17.375 2.777344 21.851562 2.777344 26.644531 C 2.777344 31.4375 4.117188 35.914062 6.4375 39.726562 C 6.457031 39.757812 6.472656 39.785156 6.492188 39.8125 C 7.527344 41.496094 8.753906 43.046875 10.144531 44.4375 C 14.699219 48.992188 20.992188 51.808594 27.941406 51.808594 C 34.886719 51.808594 41.179688 48.992188 45.734375 44.4375 C 50.289062 39.886719 53.105469 33.59375 53.105469 26.644531 C 53.105469 19.695312 50.289062 13.40625 45.734375 8.851562 Z M 48.554688 38.019531 L 43.398438 38.082031 C 44.53125 34.855469 45.203125 31.222656 45.277344 27.378906 L 51.464844 27.445312 C 51.339844 31.269531 50.296875 34.867188 48.554688 38.019531 Z M 4.402344 26.941406 L 10.597656 27.007812 C 10.636719 31.144531 11.363281 35.042969 12.617188 38.46875 L 7.617188 38.53125 C 5.617188 35.121094 4.453125 31.164062 4.402344 26.941406 Z M 7.617188 14.761719 L 12.617188 14.824219 C 11.453125 18 10.742188 21.585938 10.613281 25.390625 L 4.4375 25.324219 C 4.648438 21.484375 5.78125 17.890625 7.617188 14.761719 Z M 35.019531 25.652344 C 34.980469 21.851562 34.714844 18.269531 34.28125 15.09375 L 41.671875 15.183594 C 42.847656 18.332031 43.554688 21.917969 43.652344 25.742188 Z M 27.941406 50.1875 C 26.625 50.183594 25.324219 47.695312 24.285156 43.664062 C 23.996094 42.535156 23.734375 41.289062 23.503906 39.945312 L 32.394531 39.835938 C 32.160156 41.21875 31.890625 42.503906 31.59375 43.664062 C 30.554688 47.695312 29.257812 50.1875 27.941406 50.1875 Z M 23.253906 38.332031 C 22.777344 35.011719 22.5 31.199219 22.480469 27.132812 L 33.402344 27.25 C 33.375 31.226562 33.105469 34.953125 32.644531 38.214844 Z M 22.484375 25.515625 C 22.53125 21.691406 22.804688 18.105469 23.253906 14.957031 L 32.644531 15.074219 C 33.089844 18.226562 33.355469 21.8125 33.398438 25.632812 Z M 23.503906 13.339844 C 23.734375 12 23.996094 10.753906 24.285156 9.625 C 25.324219 5.597656 26.625 3.101562 27.941406 3.101562 C 29.257812 3.101562 30.554688 5.597656 31.59375 9.625 C 31.890625 10.785156 32.160156 12.070312 32.394531 13.453125 Z M 34.035156 13.472656 C 33.785156 11.9375 33.488281 10.511719 33.15625 9.226562 C 32.535156 6.804688 31.757812 4.855469 30.863281 3.515625 C 33.980469 4.398438 36.78125 6.667969 38.960938 9.878906 C 39.722656 11 40.40625 12.234375 41 13.558594 Z M 22.722656 9.226562 C 22.402344 10.46875 22.113281 11.839844 21.867188 13.320312 L 15.023438 13.234375 C 15.585938 12.03125 16.21875 10.90625 16.914062 9.878906 C 19.09375 6.667969 21.898438 4.398438 25.015625 3.511719 C 24.121094 4.855469 23.34375 6.804688 22.722656 9.226562 Z M 21.621094 14.9375 C 21.175781 18.109375 20.90625 21.695312 20.863281 25.5 L 12.238281 25.40625 C 12.371094 21.570312 13.121094 17.980469 14.339844 14.84375 Z M 12.21875 27.023438 L 20.859375 27.117188 C 20.878906 31.171875 21.152344 34.996094 21.621094 38.355469 L 14.339844 38.445312 C 13.027344 35.078125 12.265625 31.183594 12.21875 27.023438 Z M 21.867188 39.96875 C 22.113281 41.449219 22.398438 42.820312 22.722656 44.066406 C 23.34375 46.484375 24.121094 48.4375 25.015625 49.777344 C 21.898438 48.890625 19.097656 46.621094 16.917969 43.410156 C 16.21875 42.382812 15.585938 41.257812 15.023438 40.054688 Z M 33.160156 44.066406 C 33.488281 42.78125 33.785156 41.355469 34.039062 39.816406 L 41.003906 39.730469 C 40.40625 41.058594 39.722656 42.292969 38.964844 43.410156 C 36.785156 46.621094 33.984375 48.890625 30.863281 49.777344 C 31.757812 48.4375 32.535156 46.484375 33.160156 44.066406 Z M 34.28125 38.195312 C 34.730469 34.917969 34.996094 31.203125 35.023438 27.265625 L 43.65625 27.359375 C 43.578125 31.253906 42.867188 34.90625 41.671875 38.101562 Z M 45.273438 25.761719 C 45.183594 21.972656 44.519531 18.390625 43.398438 15.207031 L 48.554688 15.269531 C 50.292969 18.417969 51.335938 22.007812 51.464844 25.828125 Z M 44.585938 10 C 45.695312 11.109375 46.695312 12.328125 47.566406 13.640625 L 42.773438 13.582031 C 42.074219 11.90625 41.242188 10.359375 40.300781 8.972656 C 39.160156 7.292969 37.855469 5.84375 36.425781 4.683594 C 39.511719 5.875 42.289062 7.699219 44.585938 10 Z M 11.292969 10 C 13.59375 7.699219 16.367188 5.875 19.453125 4.679688 C 18.023438 5.84375 16.71875 7.289062 15.578125 8.972656 C 14.707031 10.257812 13.929688 11.679688 13.261719 13.214844 L 8.644531 13.15625 C 9.433594 12.027344 10.320312 10.96875 11.292969 10 Z M 8.644531 40.132812 L 13.261719 40.074219 C 13.925781 41.609375 14.707031 43.03125 15.578125 44.316406 C 16.71875 46 18.023438 47.445312 19.453125 48.609375 C 16.367188 47.414062 13.589844 45.589844 11.292969 43.292969 C 10.320312 42.320312 9.433594 41.261719 8.644531 40.132812 Z M 44.585938 43.292969 C 42.285156 45.589844 39.511719 47.414062 36.425781 48.609375 C 37.855469 47.445312 39.160156 46 40.300781 44.316406 C 41.242188 42.929688 42.074219 41.382812 42.773438 39.707031 L 47.566406 39.648438 C 46.695312 40.960938 45.695312 42.179688 44.585938 43.292969 Z M 44.585938 43.292969 " fill-opacity="1" fill-rule="nonzero"></path></g></svg> 